<?xml version="1.0" encoding="UTF-8"?>
<svg width="666px" height="234px" viewBox="0 0 666 234" version="1.1" xmlns="http://www.w3.org/2000/svg" xmlns:xlink="http://www.w3.org/1999/xlink">
    <title>Group</title>
    <defs>
        <linearGradient x1="148.935123%" y1="52.3858206%" x2="-40.47343%" y2="50%" id="linearGradient-1">
            <stop stop-color="#3ED6E2" stop-opacity="0.358582823" offset="0%"></stop>
            <stop stop-color="#1DACC2" stop-opacity="0.501119974" offset="100%"></stop>
        </linearGradient>
        <linearGradient x1="148.935123%" y1="53.6801441%" x2="-40.47343%" y2="50%" id="linearGradient-2">
            <stop stop-color="#3ED6E2" stop-opacity="0.358582823" offset="0%"></stop>
            <stop stop-color="#1DACC2" stop-opacity="0.501119974" offset="100%"></stop>
        </linearGradient>
    </defs>
    <g id="Page-1" stroke="none" stroke-width="1" fill="none" fill-rule="evenodd">
        <g id="Desktop-HD-Copy-3" transform="translate(-1977.000000, -627.000000)">
            <g id="Group-2" transform="translate(248.000000, 139.000000)">
                <g id="Home" transform="translate(1458.231284, 142.000000)">
                    <g id="Group" transform="translate(271.000000, 346.000000)">
                        <path d="M336,152.453072 C587.886252,112.264448 651,118.325289 651,76.226536 C651,34.1277827 509.969696,0 336,0 C162.030304,0 21,34.1277827 21,76.226536 C21,118.325289 84.1137476,192.641697 336,152.453072 Z" id="Oval" fill="url(#linearGradient-1)"></path>
                        <path d="M332.5,218.862259 C598.379933,166.175953 665,174.121568 665,118.93113 C665,63.7406907 516.134679,19 332.5,19 C148.865321,19 0,63.7406907 0,118.93113 C0,174.121568 66.6200669,271.548566 332.5,218.862259 Z" id="Oval-Copy" fill="url(#linearGradient-2)"></path>
                    </g>
                </g>
            </g>
        </g>
    </g>
</svg>