<?xml version="1.0" encoding="UTF-8"?>
<svg width="45px" height="56px" viewBox="0 0 45 56" version="1.1" xmlns="http://www.w3.org/2000/svg" xmlns:xlink="http://www.w3.org/1999/xlink">
    <title>apple-original copy 2</title>
    <g id="Page-1" stroke="none" stroke-width="1" fill="none" fill-rule="evenodd">
        <g id="Desktop-HD-Copy" transform="translate(-975.000000, -1903.000000)" fill="#000000" fill-rule="nonzero">
            <g id="apple-original-copy-2" transform="translate(975.000000, 1903.000000)">
                <path d="M37.4580882,29.369877 C37.5348529,37.6251464 44.7348529,40.3726581 44.8142647,40.4077869 C44.7533824,40.6009953 43.6641176,44.3228923 41.0214706,48.1664227 C38.7370588,51.4896077 36.3657353,54.8004977 32.6311765,54.869877 C28.9614706,54.9366218 27.7813235,52.703308 23.5852941,52.703308 C19.3905882,52.703308 18.0798529,54.8004977 14.6055882,54.9366218 C11.0002941,55.0727459 8.25485294,51.3425059 5.95147059,48.032055 C1.245,41.2592213 -2.35191176,28.8934426 2.47764706,20.5463993 C4.87676471,16.4012002 9.165,13.7766393 13.8189706,13.7090164 C17.3589706,13.6418326 20.7004412,16.0793326 22.8644118,16.0793326 C25.0270588,16.0793326 29.0876471,13.1478337 33.3564706,13.5781616 C35.1436765,13.6523712 40.1598529,14.2965457 43.3808824,18.9897541 C43.1219118,19.1500293 37.3958824,22.467945 37.4580882,29.369877 M30.5611765,9.09792155 C32.475,6.79215457 33.7632353,3.58138173 33.4120588,0.387734192 C30.6529412,0.49795082 27.3167647,2.21750585 25.3380882,4.52239461 C23.5645588,6.56293911 22.0116176,9.82991803 22.4302941,12.9603337 C25.5057353,13.1974532 28.6469118,11.4050059 30.5611765,9.09792155" id="Shape"></path>
            </g>
        </g>
    </g>
</svg>