<?xml version="1.0" encoding="UTF-8"?>
<svg width="50px" height="49px" viewBox="0 0 50 49" version="1.1" xmlns="http://www.w3.org/2000/svg" xmlns:xlink="http://www.w3.org/1999/xlink">
    <title>github-original copy 2</title>
    <g id="Page-1" stroke="none" stroke-width="1" fill="none" fill-rule="evenodd">
        <g id="Desktop-HD-Copy" transform="translate(-1021.000000, -1642.000000)" fill="#181616" fill-rule="nonzero">
            <g id="github-original-copy-2" transform="translate(1021.000000, 1642.000000)">
                <path d="M24.999793,0 C11.1945983,0 0,11.0993146 0,24.7925064 C0,35.7468956 7.1632016,45.0397747 17.0963842,48.3184552 C18.3453803,48.5483652 18.8040769,47.7806301 18.8040769,47.1257972 C18.8040769,46.5346001 18.7808937,44.581597 18.7701301,42.5099439 C11.8151635,44.0096959 10.3475827,39.58475 10.3475827,39.58475 C9.2103629,36.7190864 7.57180589,35.9570991 7.57180589,35.9570991 C5.30316203,34.4183444 7.74278215,34.4503676 7.74278215,34.4503676 C10.2527799,34.6248529 11.5750515,37.0052422 11.5750515,37.0052422 C13.8047807,40.7946513 17.4234333,39.6992945 18.8500294,39.0662209 C19.0744099,37.4638305 19.7222981,36.3697053 20.4372521,35.7505906 C14.8844565,35.1244965 9.04683839,32.9982398 9.04683839,23.4984417 C9.04683839,20.7916623 10.0238456,18.5800104 11.6230739,16.843369 C11.3630907,16.2193277 10.5073814,13.6977079 11.8648418,10.2827237 C11.8648418,10.2827237 13.9637514,9.61639528 18.741151,12.82405 C20.7357361,12.2743188 22.8748023,11.9980163 24.999793,11.9885736 C27.1235417,11.9980163 29.2638499,12.2734977 31.2621608,12.8232289 C36.0337647,9.61557417 38.1301904,10.2819025 38.1301904,10.2819025 C39.4909627,13.6964762 38.6352534,16.2185066 38.3756841,16.8425479 C39.9786383,18.5791893 40.9486078,20.7908412 40.9486078,23.4976206 C40.9486078,33.0199991 35.100226,35.1162854 29.5333549,35.7304735 C30.4304628,36.4998508 31.2294559,38.0090456 31.2294559,40.3216936 C31.2294559,43.6389661 31.2004769,46.3087957 31.2004769,47.1253867 C31.2004769,47.7851462 31.6508938,48.5582185 32.9176913,48.3147602 C42.8450781,45.0327953 50,35.7427901 50,24.7925064 C50,11.1001357 38.8062297,0 24.999793,0 L24.999793,0 Z" id="Path"></path>
                <path d="M9.22485108,35.7252113 C9.1696065,35.8528731 8.97355055,35.8911717 8.79494025,35.8039361 C8.61217623,35.7205304 8.5104099,35.5464848 8.56939284,35.4183974 C8.6233913,35.2864803 8.81986262,35.2503094 9.00138052,35.3383961 C9.18414454,35.4222273 9.28798774,35.597975 9.2244357,35.7256369 L9.22485108,35.7252113 Z M10.2408529,36.8865082 C10.1216409,37.0001272 9.88778603,36.9473603 9.72911363,36.7673572 C9.56462601,36.5886306 9.53388842,36.349052 9.65559264,36.2337308 C9.77937373,36.1205374 10.0061673,36.1741553 10.1706549,36.3528818 C10.3343118,36.5341616 10.3667108,36.7716126 10.2412683,36.8869337 L10.2408529,36.8865082 Z M11.2302708,38.3661085 C11.0765829,38.4758976 10.824867,38.3733426 10.6695176,38.144828 C10.5158297,37.9158878 10.5158297,37.641415 10.6736713,37.5320514 C10.8286054,37.4222622 11.0765829,37.5214129 11.2344246,37.7477998 C11.3872817,37.9797187 11.3872817,38.2541916 11.2302708,38.3656829 L11.2302708,38.3661085 Z M12.5848015,39.7963462 C12.4477284,39.951668 12.1544753,39.9099652 11.9401429,39.6984721 C11.7212415,39.4912345 11.6601817,39.1963357 11.79767,39.0414394 C11.9372353,38.885692 12.2317346,38.929097 12.4473131,39.1393134 C12.6662145,39.3461256 12.7322588,39.6414499 12.5856322,39.7959206 L12.5848015,39.7963462 Z M14.4539789,40.6265734 C14.3929192,40.8278536 14.1112964,40.9193445 13.8267661,40.8333856 C13.5430665,40.7452989 13.3573948,40.5099757 13.415547,40.3065679 C13.4736992,40.1035856 13.7573988,40.0086903 14.0435906,40.1001813 C14.3272903,40.1878424 14.5129619,40.421889 14.4539789,40.6265734 Z M16.5071666,40.7801931 C16.5142279,40.9921117 16.2733117,41.1674339 15.9754894,41.1716893 C15.6751749,41.1789235 15.4321818,41.0070056 15.4292742,40.7984913 C15.4292742,40.584445 15.665206,40.4112505 15.9651051,40.405293 C16.2629274,40.399761 16.507582,40.5699767 16.507582,40.7797676 L16.5071666,40.7801931 Z M18.4170506,40.4474214 C18.4527727,40.653808 18.2455016,40.8661521 17.9493409,40.9227488 C17.6585799,40.9780689 17.3885876,40.8495561 17.3512041,40.6448716 C17.315482,40.432953 17.5264914,40.2206089 17.8172523,40.1657143 C18.1138285,40.113373 18.3796671,40.238056 18.4170506,40.4478469 L18.4170506,40.4474214 Z" id="Shape"></path>
            </g>
        </g>
    </g>
</svg>