<?xml version="1.0" encoding="UTF-8"?>
<svg width="43px" height="40px" viewBox="0 0 43 40" version="1.1" xmlns="http://www.w3.org/2000/svg" xmlns:xlink="http://www.w3.org/1999/xlink">
    <title>github-original</title>
    <defs>
        <filter id="filter-1">
            <feColorMatrix in="SourceGraphic" type="matrix" values="0 0 0 0 0.037884 0 0 0 0 0.048895 0 0 0 0 0.302055 0 0 0 1.000000 0"></feColorMatrix>
        </filter>
    </defs>
    <g id="Page-1" stroke="none" stroke-width="1" fill="none" fill-rule="evenodd">
        <g id="Desktop-HD-Copy-3" transform="translate(-2148.000000, -3548.000000)">
            <g id="Group-2" transform="translate(248.000000, 139.000000)">
                <g id="github-original" transform="translate(0.231284, 3314.000000)" filter="url(#filter-1)">
                    <g transform="translate(1900.000000, 95.000000)">
                        <path d="M20.6779661,0.0349152542 C9.37389831,0.0349152542 0.207457627,9.19932203 0.207457627,20.5054237 C0.207457627,29.5501695 6.07288136,37.2230508 14.2064407,39.9301695 C15.2291525,40.12 15.6047458,39.4861017 15.6047458,38.9454237 C15.6047458,38.4572881 15.5857627,36.8447458 15.5769492,35.1342373 C9.8820339,36.3725424 8.68033898,32.7189831 8.68033898,32.7189831 C7.74915254,30.3528814 6.40745763,29.7237288 6.40745763,29.7237288 C4.54983051,28.4532203 6.54745763,28.479661 6.54745763,28.479661 C8.60271186,28.6237288 9.68542373,30.5891525 9.68542373,30.5891525 C11.5111864,33.7179661 14.4742373,32.8135593 15.6423729,32.2908475 C15.8261017,30.9677966 16.3566102,30.0644068 16.9420339,29.5532203 C12.3952542,29.0362712 7.61525424,27.280678 7.61525424,19.4369492 C7.61525424,17.2020339 8.41525424,15.3759322 9.72474576,13.9420339 C9.51186441,13.4267797 8.81118644,11.3447458 9.92271186,8.52508475 C9.92271186,8.52508475 11.6413559,7.97491525 15.5532203,10.6233898 C17.1864407,10.1694915 18.9379661,9.94135593 20.6779661,9.93355932 C22.4169492,9.94135593 24.1694915,10.1688136 25.8057627,10.6227119 C29.7128814,7.97423729 31.4294915,8.52440678 31.4294915,8.52440678 C32.5437288,11.3437288 31.8430508,13.4261017 31.6305085,13.9413559 C32.9430508,15.3752542 33.7372881,17.2013559 33.7372881,19.4362712 C33.7372881,27.2986441 28.9484746,29.0294915 24.3901695,29.5366102 C25.1247458,30.1718644 25.7789831,31.4179661 25.7789831,33.3274576 C25.7789831,36.0664407 25.7552542,38.2708475 25.7552542,38.9450847 C25.7552542,39.4898305 26.1240678,40.1281356 27.1613559,39.9271186 C35.2901695,37.2172881 41.1488136,29.5467797 41.1488136,20.5054237 C41.1488136,9.2 31.9830508,0.0349152542 20.6779661,0.0349152542 L20.6779661,0.0349152542 Z" id="Path" fill="#181616" fill-rule="nonzero"></path>
                        <path d="M7.96067797,29.4257627 C7.91559322,29.5274576 7.75559322,29.5579661 7.60983051,29.4884746 C7.46067797,29.4220339 7.37762712,29.2833898 7.42576271,29.1813559 C7.46983051,29.0762712 7.63016949,29.0474576 7.77830508,29.1176271 C7.92745763,29.1844068 8.01220339,29.3244068 7.96033898,29.4261017 L7.96067797,29.4257627 Z M8.78983051,30.3508475 C8.69254237,30.4413559 8.50169492,30.399322 8.37220339,30.2559322 C8.2379661,30.1135593 8.21288136,29.9227119 8.31220339,29.8308475 C8.41322034,29.740678 8.59830508,29.7833898 8.73254237,29.9257627 C8.86610169,30.0701695 8.89254237,30.259322 8.79016949,30.3511864 L8.78983051,30.3508475 Z M9.59728814,31.5294915 C9.47186441,31.6169492 9.26644068,31.5352542 9.13966102,31.3532203 C9.01423729,31.1708475 9.01423729,30.9522034 9.14305085,30.8650847 C9.26949153,30.7776271 9.47186441,30.8566102 9.60067797,31.0369492 C9.72542373,31.2216949 9.72542373,31.440339 9.59728814,31.5291525 L9.59728814,31.5294915 Z M10.7027119,32.6688136 C10.5908475,32.7925424 10.3515254,32.759322 10.1766102,32.5908475 C9.9979661,32.4257627 9.94813559,32.1908475 10.060339,32.0674576 C10.1742373,31.9433898 10.4145763,31.9779661 10.5905085,32.1454237 C10.7691525,32.3101695 10.8230508,32.5454237 10.7033898,32.6684746 L10.7027119,32.6688136 Z M12.2281356,33.3301695 C12.1783051,33.4905085 11.9484746,33.5633898 11.7162712,33.4949153 C11.4847458,33.4247458 11.3332203,33.2372881 11.380678,33.0752542 C11.4281356,32.9135593 11.659661,32.8379661 11.8932203,32.9108475 C12.1247458,32.980678 12.2762712,33.1671186 12.2281356,33.3301695 Z M13.9037288,33.4525424 C13.9094915,33.6213559 13.7128814,33.7610169 13.4698305,33.7644068 C13.2247458,33.7701695 13.0264407,33.6332203 13.0240678,33.4671186 C13.0240678,33.2966102 13.2166102,33.1586441 13.4613559,33.1538983 C13.7044068,33.1494915 13.9040678,33.2850847 13.9040678,33.4522034 L13.9037288,33.4525424 Z M15.4623729,33.1874576 C15.4915254,33.3518644 15.3223729,33.5210169 15.080678,33.5661017 C14.8433898,33.6101695 14.6230508,33.5077966 14.5925424,33.3447458 C14.5633898,33.1759322 14.7355932,33.0067797 14.9728814,32.9630508 C15.2149153,32.9213559 15.4318644,33.020678 15.4623729,33.1877966 L15.4623729,33.1874576 Z" id="Shape" fill="#181616" fill-rule="nonzero"></path>
                    </g>
                </g>
            </g>
        </g>
    </g>
</svg>