<?xml version="1.0" encoding="UTF-8"?>
<svg width="45px" height="45px" viewBox="0 0 45 45" version="1.1" xmlns="http://www.w3.org/2000/svg" xmlns:xlink="http://www.w3.org/1999/xlink">
    <title>illustrator-plain copy 2</title>
    <g id="Page-1" stroke="none" stroke-width="1" fill="none" fill-rule="evenodd">
        <g id="Desktop-HD-Copy" transform="translate(-926.000000, -1732.000000)" fill="#FAA625">
            <g id="illustrator-plain-copy-2" transform="translate(926.000000, 1732.000000)">
                <path d="M16.9919291,24.0944882 L22.4383465,24.0944882 C21.5007874,20.9055118 20.5774016,17.9574803 19.6688976,14.9612598 C18.7873228,17.9681102 17.8929921,20.9055118 16.9919291,24.0944882 Z M43.9766929,-3.46179778e-15 L1.01799213,-3.46179778e-15 C0.243425197,-3.46179778e-15 0.354330709,0.168661417 0.354330709,0.915944882 L0.354330709,43.9295669 C0.354330709,44.6761417 0.243425197,44.6458429 0.963425197,44.6458429 L44.0312598,44.6458429 C44.7509055,44.6458429 45,44.6761417 45,43.9292126 L45,0.970511811 C45,0.168661417 44.7512598,-3.46179778e-15 43.9766929,-3.46179778e-15 Z M27.3890551,33.6614173 C26.8090157,33.6614173 26.2268504,33.6142913 25.6496457,33.655748 C25.2333071,33.6869291 25.0940551,33.5118898 24.9831496,33.1504724 C24.4466929,31.4032677 23.8765748,29.6567717 23.3397638,27.9099213 C23.2316929,27.5584252 23.0772047,27.4301575 22.6962992,27.4347638 C20.7393307,27.4574409 18.7812992,27.455315 16.8239764,27.4322835 C16.4118898,27.4273228 16.2223228,27.5371654 16.104685,27.946063 C15.6064961,29.6837008 15.0615354,31.4071654 14.5580315,33.1430315 C14.4488976,33.5193307 14.2830709,33.6507874 13.8833858,33.6405118 C12.7077165,33.6111024 11.5302756,33.6291732 10.2429921,33.6291732 C10.5827953,32.5502362 10.891063,31.5524409 11.2099606,30.5588976 C13.1637402,24.4644094 15.124252,18.3699213 17.0638583,12.2715354 C17.1992126,11.8470472 17.3873622,11.7162992 17.823189,11.7258661 C19.2001181,11.7563386 20.5781102,11.7336614 21.955748,11.7258661 C22.2133465,11.7240945 22.3890945,11.7393307 22.4833465,12.0320079 C24.7882677,19.1597244 27.1013386,26.331378 29.4122835,33.4583858 C29.4222047,33.4906299 29.4158268,33.6614173 29.4211417,33.6614173 L27.3890551,33.6614173 L27.3890551,33.6614173 Z M34.7244094,33.6614173 L30.4724409,33.6614173 L30.4724409,17.7165354 L34.7244094,17.7165354 L34.7244094,33.6614173 Z M32.4744094,15.5653975 C31.1757874,15.563622 30.2460236,14.6696457 30.2371654,13.4146063 C30.2286614,12.1631102 31.1963386,11.2322835 32.5070079,11.2308645 C33.8279528,11.2294488 34.7587795,12.1298031 34.7690551,13.4174409 C34.7782677,14.6735433 33.8240551,15.5675197 32.4744094,15.5653975 L32.4744094,15.5653975 Z" id="Shape"></path>
            </g>
        </g>
    </g>
</svg>