<?xml version="1.0" encoding="UTF-8"?>
<svg width="122px" height="122px" viewBox="0 0 122 122" version="1.1" xmlns="http://www.w3.org/2000/svg" xmlns:xlink="http://www.w3.org/1999/xlink">
    <title>linkedin-plain</title>
    <defs>
        <filter id="filter-1">
            <feColorMatrix in="SourceGraphic" type="matrix" values="0 0 0 0 1.000000 0 0 0 0 1.000000 0 0 0 0 1.000000 0 0 0 1.000000 0"></feColorMatrix>
        </filter>
    </defs>
    <g id="Page-1" stroke="none" stroke-width="1" fill="none" fill-rule="evenodd">
        <g id="linkedin-plain" transform="translate(-2252.000000, -3196.000000)" filter="url(#filter-1)">
            <g transform="translate(2252.000000, 3196.000000)">
                <path d="M113,-0.000471084901 L9,-0.000471084901 C4.08676351,-0.0500025477 0.0604059477,3.8868804 0,8.8 L0,113.22 C0.0713216525,118.125272 4.09446481,122.050072 9,122.000474 L113,122.000474 C117.912655,122.038952 121.934137,118.102368 122,113.19 L122,8.77 C121.912408,3.87332618 117.897301,-0.0391732798 113,-0.000471084901 Z M36.17,104 L18.06,104 L18.06,45.73 L36.17,45.73 L36.17,104 Z M27.17,37.7900048 C22.9222388,37.7940455 19.0904897,35.2383691 17.462138,31.31511 C15.8337862,27.3918508 16.7296516,22.8739744 19.7318424,19.8689216 C22.7340332,16.8638688 27.251054,15.963699 31.1758629,17.5883119 C35.1006719,19.2129247 37.66,23.0422368 37.66,27.29 C37.6547093,30.07825 36.5406307,32.7499019 34.5634169,34.7158602 C32.5862032,36.6818184 29.9082348,37.7806269 27.12,37.77 L27.17,37.7900048 Z M104,104 L85.89,104 L85.89,75.65 C85.89,68.9 85.77,60.21 76.48,60.21 C67.19,60.21 65.61,67.57 65.61,75.21 L65.61,104 L47.53,104 L47.53,45.73 L64.89,45.73 L64.89,53.73 L65.13,53.73 C67.55,49.15 73.45,44.3199009 82.26,44.3199009 C100.6,44.28 104,56.35 104,72 L104,104 Z" id="plain" fill="#000000" fill-rule="nonzero"></path>
            </g>
        </g>
    </g>
</svg>