<?xml version="1.0" encoding="UTF-8"?>
<svg width="19px" height="20px" viewBox="0 0 19 20" version="1.1" xmlns="http://www.w3.org/2000/svg" xmlns:xlink="http://www.w3.org/1999/xlink">
    <title>location_on-black-18dp</title>
    <defs>
        <filter id="filter-1">
            <feColorMatrix in="SourceGraphic" type="matrix" values="0 0 0 0 0.681100 0 0 0 0 0.767814 0 0 0 0 0.780712 0 0 0 1.000000 0"></feColorMatrix>
        </filter>
    </defs>
    <g id="Page-1" stroke="none" stroke-width="1" fill="none" fill-rule="evenodd">
        <g id="Desktop-HD-Copy-3" transform="translate(-1852.000000, -1386.000000)">
            <g id="Group-2" transform="translate(248.000000, 139.000000)">
                <g id="Work" transform="translate(0.000000, 628.757809)">
                    <g id="enepath-card" transform="translate(1476.231284, 585.242191)">
                        <g id="location_on-black-18dp" transform="translate(128.000000, 33.000000)" filter="url(#filter-1)">
                            <g transform="translate(0.000000, 1.000000)">
                                <polygon id="Path" points="0 0 18 0 18 18 0 18"></polygon>
                                <path d="M9,1.5 C6.0975,1.5 3.75,3.8475 3.75,6.75 C3.75,10.6875 9,16.5 9,16.5 C9,16.5 14.25,10.6875 14.25,6.75 C14.25,3.8475 11.9025,1.5 9,1.5 Z M9,8.625 C7.965,8.625 7.125,7.785 7.125,6.75 C7.125,5.715 7.965,4.875 9,4.875 C10.035,4.875 10.875,5.715 10.875,6.75 C10.875,7.785 10.035,8.625 9,8.625 Z" id="Shape" fill="#000000" fill-rule="nonzero"></path>
                            </g>
                        </g>
                    </g>
                </g>
            </g>
        </g>
    </g>
</svg>