<?xml version="1.0" encoding="UTF-8"?>
<svg width="64px" height="48px" viewBox="0 0 64 48" version="1.1" xmlns="http://www.w3.org/2000/svg" xmlns:xlink="http://www.w3.org/1999/xlink">
    <title>mail</title>
    <defs>
        <filter id="filter-1">
            <feColorMatrix in="SourceGraphic" type="matrix" values="0 0 0 0 0.989646 0 0 0 0 0.991933 0 0 0 0 0.990954 0 0 0 1.000000 0"></feColorMatrix>
        </filter>
    </defs>
    <g id="Page-1" stroke="none" stroke-width="1" fill="none" fill-rule="evenodd">
        <g id="mail" transform="translate(-2136.000000, -3210.000000)" filter="url(#filter-1)">
            <g transform="translate(2136.000000, 3210.000000)">
                <path d="M1.336,3.8945 C10.11975,11.333375 25.5325,24.420625 30.0625,28.50125 C30.670625,29.052 31.322875,29.332 32,29.332 C32.67575,29.332 33.326875,29.054625 33.933625,28.5065 C38.4675,24.421875 53.88025,11.333375 62.664125,3.8945 C63.211,3.43225 63.294375,2.61975 62.851625,2.054625 C61.828125,0.74875 60.302125,0 58.666625,0 L5.333375,0 C3.698,0 2.171875,0.74875 1.1485,2.05475 C0.70575,2.61975 0.789125,3.43225 1.336,3.8945 Z" id="Path" fill="#000000" fill-rule="nonzero"></path>
                <path d="M63.226625,7.92575 C62.754,7.70575 62.198,7.7825 61.80475,8.1185 C52.06375,16.37625 39.6315,26.961 35.72,30.485625 C33.524625,32.467375 30.47775,32.467375 28.27725,30.483 C24.108,26.7265 10.147,14.858 2.19525,8.118375 C1.799375,7.782375 1.242125,7.70825 0.773375,7.925625 C0.302125,8.1445 0,8.615875 0,9.135375 L0,42.666625 C0,45.608125 2.391875,48 5.333375,48 L58.66675,48 C61.608125,48 64,45.608125 64,42.666625 L64,9.135375 C64,8.615875 63.697875,8.14325 63.226625,7.92575 Z" id="Path" fill="#000000" fill-rule="nonzero"></path>
            </g>
        </g>
    </g>
</svg>