<?xml version="1.0" encoding="UTF-8"?>
<svg width="45px" height="45px" viewBox="0 0 45 45" version="1.1" xmlns="http://www.w3.org/2000/svg" xmlns:xlink="http://www.w3.org/1999/xlink">
    <title>photoshop-plain copy 2</title>
    <g id="Page-1" stroke="none" stroke-width="1" fill="none" fill-rule="evenodd">
        <g id="Desktop-HD-Copy" transform="translate(-1024.000000, -1820.000000)" fill="#80B5E2">
            <g id="photoshop-plain-copy-2" transform="translate(1024.000000, 1820.000000)">
                <path d="M17.5878583,14.4955845 C16.2728582,14.1654581 14.9560724,14.2714554 13.5664294,14.4877328 C13.5664294,16.9163928 13.5614294,19.2797412 13.5796437,21.6434466 C13.580358,21.7644335 13.7621437,21.9750006 13.8800009,21.9910608 C15.3953581,22.1955608 16.9025011,22.2119779 18.319644,21.5217459 C19.7857155,20.807959 20.5325013,19.3154306 20.3389299,17.5630837 C20.1632156,15.9674131 19.2178584,14.9049413 17.5878583,14.4955845 L17.5878583,14.4955845 Z M45,22.4710825 L45,0.815501541 C45,0.0674528627 45.0082171,1.71996456e-15 44.2814314,1.71996456e-15 L0.885357199,1.71996456e-15 C0.17857144,1.71996456e-15 -4.2999114e-16,0.0678097561 -4.2999114e-16,0.780169089 L-4.2999114e-16,44.1459357 C-4.2999114e-16,44.8661467 0.0900000057,44.8672174 0.788928621,44.8672174 C15.2728581,44.8675743 29.8000019,44.8640053 44.2839314,44.880425 C44.8457171,44.8811362 44.9964314,44.7315979 44.9950029,44.1812682 C44.9757171,36.9445396 45,29.7070973 45,22.4710825 Z M19.7685727,24.5553403 C17.7839297,25.2627031 15.7142867,25.3023183 13.5714294,25.1363628 L13.5714294,33.1910912 L9.64285775,33.1910912 L9.64285775,32.6907265 C9.64285775,25.9472247 9.61178632,19.2044367 9.59282064,12.4612918 C9.59071489,11.901326 9.67964347,11.6308008 10.3110721,11.5665599 C13.2867866,11.2624867 16.2457153,10.9205828 19.2046441,11.6140268 C22.3853586,12.3588634 24.2192872,14.460252 24.358573,17.3635803 C24.531073,20.9589249 22.9500015,23.4214898 19.7685727,24.5553403 L19.7685727,24.5553403 Z M35.5935737,29.1071594 C35.4421451,31.1667915 34.2800022,32.5190608 32.3739306,33.1728896 C29.8232162,34.0479923 27.2864303,33.84492 24.793573,32.8548975 C24.3853587,32.692511 24.3064301,32.4869404 24.441073,32.0711595 C24.6864301,31.312404 24.866073,30.5322349 25.0553587,29.8277273 C26.1092874,30.136797 27.1114303,30.5225988 28.1496446,30.7049714 C28.882859,30.8338099 29.675359,30.7581485 30.4207162,30.6414443 C31.0889305,30.5365177 31.5696449,30.083263 31.6792877,29.3666209 C31.7907163,28.6382014 31.5710734,28.0072138 30.927502,27.6196275 C30.4160734,27.3119853 29.8525019,27.091782 29.3121447,26.8337481 C28.4432161,26.418681 27.5171446,26.0931942 26.715716,25.5739142 C23.5617872,23.5299854 24.588573,19.7269287 26.693216,18.2947153 C27.8192875,17.528822 29.065359,17.1890594 30.3992876,17.1423064 C31.9682163,17.0873448 33.4789307,17.35787 34.9628594,18.0784379 L34.1789307,20.858281 C33.5575021,20.6384346 32.9789307,20.3529199 32.3682163,20.2394277 C31.6435734,20.104522 30.8835734,20.0292175 30.1521448,20.0888187 C29.1714304,20.1691197 28.5971447,20.8454328 28.5971447,21.6841324 C28.5971447,22.1809281 28.7857161,22.6013486 29.200359,22.8422517 C29.795359,23.1880815 30.4267876,23.4732393 31.052502,23.7626799 C31.7296449,24.0756755 32.4446449,24.3162217 33.0964307,24.673472 C34.8357165,25.6263775 35.7410737,27.1003475 35.5935737,29.1071594 Z" id="Shape"></path>
            </g>
        </g>
    </g>
</svg>