<?xml version="1.0" encoding="UTF-8"?>
<svg width="50px" height="46px" viewBox="0 0 50 46" version="1.1" xmlns="http://www.w3.org/2000/svg" xmlns:xlink="http://www.w3.org/1999/xlink">
    <title>sketch-original copy 2</title>
    <g id="Page-1" stroke="none" stroke-width="1" fill="none" fill-rule="evenodd">
        <g id="Desktop-HD-Copy" transform="translate(-1021.000000, -1732.000000)" fill-rule="nonzero">
            <g id="sketch-original-copy-2" transform="translate(1021.000000, 1732.000000)">
                <polygon id="Path" fill="#FDB300" points="10.9098361 1.57786885 25 0.0983606557 39.0901639 1.57786885 50 16.102459 25 44.9836066 0 16.102459"></polygon>
                <polygon id="Path" fill="#EA6C00" points="10.1270492 16.102459 25 44.9836066 0 16.102459"></polygon>
                <polygon id="Path" fill="#EA6C00" points="39.8729508 16.102459 25 44.9836066 50 16.102459"></polygon>
                <polygon id="Path" fill="#FDAD00" points="10.1270492 16.102459 39.8729508 16.102459 25 44.9836066"></polygon>
                <polygon id="Path" fill="#FDD231" points="25 0.0983606557 10.9098361 1.57786885 10.1270492 16.102459"></polygon>
                <polygon id="Path" fill="#FDD231" points="25 0.0983606557 39.0901639 1.57786885 39.8729508 16.102459"></polygon>
                <polygon id="Path" fill="#FDAD00" points="50 16.102459 39.0901639 1.57786885 39.8729508 16.102459"></polygon>
                <polygon id="Path" fill="#FEEEB7" points="25 0.0983606557 10.1270492 16.102459 39.8729508 16.102459"></polygon>
                <polygon id="Path" fill="#FDAD00" points="0 16.102459 10.9098361 1.57786885 10.1270492 16.102459"></polygon>
            </g>
        </g>
    </g>
</svg>