<?xml version="1.0" encoding="UTF-8"?>
<svg width="45px" height="45px" viewBox="0 0 45 45" version="1.1" xmlns="http://www.w3.org/2000/svg" xmlns:xlink="http://www.w3.org/1999/xlink">
    <title>trello-plain copy 2</title>
    <g id="Page-1" stroke="none" stroke-width="1" fill="none" fill-rule="evenodd">
        <g id="Desktop-HD-Copy" transform="translate(-926.000000, -1644.000000)" fill="#23719F" fill-rule="nonzero">
            <g id="trello-plain-copy-2" transform="translate(926.000000, 1644.000000)">
                <path d="M45,5.40785714 C45,2.42107143 42.5789286,0 39.5921429,0 L5.40785714,0 C2.42107143,0 0,2.42107143 0,5.40785714 L0,39.5917857 C0,42.5789286 2.42107143,45 5.40785714,45 L39.5921429,45 C42.5789286,45 45,42.5789286 45,39.5917857 L45,5.40785714 Z M20.3571429,35.1928571 C20.3571429,36.5525 19.1835714,37.5 17.8239286,37.5 L8.05821429,37.5 C6.69857143,37.5 5.71428571,36.5525 5.71428571,35.1928571 L5.71428571,7.93928571 C5.71428571,6.57928571 6.69857143,5.35714286 8.05821429,5.35714286 L17.8239286,5.35714286 C19.1835714,5.35714286 20.3571429,6.57928571 20.3571429,7.93928571 L20.3571429,35.1928571 Z M40,11.4585714 L40,22.8464286 C40,24.2060714 38.9514286,25.3571429 37.5914286,25.3571429 L27.8307143,25.3571429 C26.4707143,25.3571429 25.3571429,24.2057143 25.3571429,22.8464286 L25.3571429,7.80928571 C25.3571429,6.44928571 26.4707143,5.35714286 27.8307143,5.35714286 L37.5914286,5.35714286 C38.9514286,5.35714286 40,6.44928571 40,7.80928571 L40,11.4585714 L40,11.4585714 Z" id="Shape"></path>
            </g>
        </g>
    </g>
</svg>