<?xml version="1.0" encoding="UTF-8"?>
<svg width="59px" height="48px" viewBox="0 0 59 48" version="1.1" xmlns="http://www.w3.org/2000/svg" xmlns:xlink="http://www.w3.org/1999/xlink">
    <title>twitter-original</title>
    <defs>
        <filter id="filter-1">
            <feColorMatrix in="SourceGraphic" type="matrix" values="0 0 0 0 0.989646 0 0 0 0 0.991933 0 0 0 0 0.990954 0 0 0 1.000000 0"></feColorMatrix>
        </filter>
    </defs>
    <g id="Page-1" stroke="none" stroke-width="1" fill="none" fill-rule="evenodd">
        <g id="twitter-original" transform="translate(-2230.000000, -3210.000000)" filter="url(#filter-1)">
            <g transform="translate(2230.000000, 3210.000000)">
                <path d="M18.5257518,48 C40.756654,48 52.9127204,29.5297141 52.9127204,13.5162054 C52.9127204,12.9920929 52.9127204,12.4679804 52.8800553,11.9485475 C55.2452454,10.2322383 57.2867876,8.10730262 58.9090909,5.67323629 C56.7042708,6.65392321 54.3652652,7.29750184 51.9701002,7.58250324 C54.4920615,6.06638553 56.3791617,3.68340748 57.2805047,0.876671023 C54.9076418,2.28919937 52.3115095,3.28467977 49.6042171,3.82012424 C45.8583183,-0.174137296 39.9061271,-1.15159737 35.0854471,1.43587322 C30.2647672,4.02334381 27.7745509,9.53221469 29.011234,14.8732824 C19.2932575,14.3850467 10.2389463,9.78220749 4.10179744,2.21035014 C0.89068938,7.74675724 2.52540211,14.8326994 7.83494642,18.3923235 C5.92481627,18.3275876 4.05774818,17.8061602 2.38921535,16.8714613 C2.38921535,16.9229367 2.38921535,16.974412 2.38921535,17.0258873 C2.38853224,22.788386 6.432428,27.7552756 12.0627376,28.9073305 C10.2824583,29.3936426 8.41468117,29.4640816 6.60300726,29.1132318 C8.18436505,34.0533422 12.7228727,37.4385971 17.8957829,37.5364684 C13.6119734,40.9006973 8.32494768,42.7234873 2.88385759,42.7120793 C1.92011105,42.7126186 0.957165565,42.6563667 5.08038056e-13,42.5436145 C5.52631886,46.1033364 11.9575927,47.9926644 18.5257518,47.9859613" id="original" fill="#1DA1F2" fill-rule="nonzero"></path>
            </g>
        </g>
    </g>
</svg>